<svg xmlns="http://www.w3.org/2000/svg" xmlns:xlink="http://www.w3.org/1999/xlink" width="48" height="33" viewBox="0 0 48 33">
  <defs>
    <clipPath id="clip-path">
      <rect width="48" height="33" fill="none"/>
    </clipPath>
  </defs>
  <g id="Symbol_1_1" data-name="Symbol 1 – 1" clip-path="url(#clip-path)">
    <path id="Path_3" data-name="Path 3" d="M16.282,2.895a49.923,49.923,0,0,1,6.513.181,8.391,8.391,0,0,1,3.075.543,6.353,6.353,0,0,1,3.075,3.075,8.391,8.391,0,0,1,.543,3.075c0,1.628.181,2.171.181,6.513a49.923,49.923,0,0,1-.181,6.513,8.391,8.391,0,0,1-.543,3.075,6.353,6.353,0,0,1-3.075,3.075,8.391,8.391,0,0,1-3.075.543c-1.628,0-2.171.181-6.513.181a49.923,49.923,0,0,1-6.513-.181,8.391,8.391,0,0,1-3.075-.543A6.353,6.353,0,0,1,3.618,25.87a8.391,8.391,0,0,1-.543-3.075c0-1.628-.181-2.171-.181-6.513a49.923,49.923,0,0,1,.181-6.513,8.391,8.391,0,0,1,.543-3.075A6.5,6.5,0,0,1,4.885,4.885,3.059,3.059,0,0,1,6.694,3.618a8.391,8.391,0,0,1,3.075-.543,49.923,49.923,0,0,1,6.513-.181m0-2.895A53.453,53.453,0,0,0,9.588.181,11.169,11.169,0,0,0,5.608.9,7.082,7.082,0,0,0,2.714,2.714,7.082,7.082,0,0,0,.9,5.608a8.243,8.243,0,0,0-.724,3.98A53.453,53.453,0,0,0,0,16.282a53.453,53.453,0,0,0,.181,6.694A11.169,11.169,0,0,0,.9,26.955,7.082,7.082,0,0,0,2.714,29.85a7.082,7.082,0,0,0,2.895,1.809,11.169,11.169,0,0,0,3.98.724,53.454,53.454,0,0,0,6.694.181,53.454,53.454,0,0,0,6.694-.181,11.169,11.169,0,0,0,3.98-.724,7.59,7.59,0,0,0,4.7-4.7,11.169,11.169,0,0,0,.724-3.98c0-1.809.181-2.352.181-6.694a53.454,53.454,0,0,0-.181-6.694,11.169,11.169,0,0,0-.724-3.98A7.082,7.082,0,0,0,29.85,2.714,7.082,7.082,0,0,0,26.955.9a11.169,11.169,0,0,0-3.98-.724A53.453,53.453,0,0,0,16.282,0m0,7.96A8.188,8.188,0,0,0,7.96,16.282,8.322,8.322,0,1,0,16.282,7.96m0,13.749a5.33,5.33,0,0,1-5.427-5.427,5.33,5.33,0,0,1,5.427-5.427,5.33,5.33,0,0,1,5.427,5.427,5.33,5.33,0,0,1-5.427,5.427m8.684-16.1a1.99,1.99,0,1,0,1.99,1.99,2.008,2.008,0,0,0-1.99-1.99" fill="#0b332c" fill-rule="evenodd"/>
  </g>
</svg>
