<svg xmlns="http://www.w3.org/2000/svg" xmlns:xlink="http://www.w3.org/1999/xlink" width="53" height="30.541" viewBox="0 0 53 30.541">
  <defs>
    <clipPath id="clip-path">
      <rect width="53" height="30.541" fill="none"/>
    </clipPath>
  </defs>
  <g id="Symbol_2_1" data-name="Symbol 2 – 1" clip-path="url(#clip-path)">
    <path id="Path_2" data-name="Path 2" d="M49.924,32.541c14.225,0,21.965-11.714,21.965-21.965V9.531a17,17,0,0,0,3.765-3.975,17.365,17.365,0,0,1-4.393,1.255,8.139,8.139,0,0,0,3.347-4.184A19.187,19.187,0,0,1,69.8,4.51,7.471,7.471,0,0,0,64.148,2a7.859,7.859,0,0,0-7.74,7.74,4.078,4.078,0,0,0,.209,1.673,21.628,21.628,0,0,1-15.9-8.158A8.011,8.011,0,0,0,39.674,7.23a8.311,8.311,0,0,0,3.347,6.485,7.052,7.052,0,0,1-3.556-1.046h0A7.645,7.645,0,0,0,45.74,20.2a6.449,6.449,0,0,1-2.092.209,3.56,3.56,0,0,1-1.464-.209,7.925,7.925,0,0,0,7.322,5.439,15.794,15.794,0,0,1-9.623,3.347A5.791,5.791,0,0,1,38,28.776a19.745,19.745,0,0,0,11.924,3.765" transform="translate(-38 -2)" fill="#0b332c" fill-rule="evenodd"/>
  </g>
</svg>
